<svg width="172" height="23" viewBox="0 0 172 23" fill="none" xmlns="http://www.w3.org/2000/svg">
<path d="M37.23 18.4996C38.3291 18.4996 39.1534 18.3622 39.5655 17.9501C39.9776 17.538 40.2524 17.126 40.2524 16.5765C40.2524 16.0271 40.115 15.615 39.7029 15.3402C39.2907 15.0655 38.7412 14.7908 38.0543 14.5161L36.4058 13.9666C35.3067 13.5545 34.3451 13.1424 33.5208 12.7304C32.6965 12.3183 32.0096 11.7688 31.5975 10.9446C31.1853 10.2578 30.9106 9.29629 30.9106 8.19739C30.9106 6.54903 31.5975 5.17541 32.8339 4.21387C34.0703 3.25233 35.8562 2.70288 38.0543 2.70288C39.1534 2.70288 40.2524 2.84024 41.0767 2.97761C41.901 3.11497 42.7252 3.52706 43.1374 3.93914C43.5495 4.35123 43.9617 4.90068 43.9617 5.5875C43.9617 5.99958 43.8243 6.41167 43.6869 6.82376C43.4121 7.09848 43.2748 7.37321 42.8626 7.64794C42.4505 7.37321 41.7636 7.09848 41.0767 6.82376C40.2524 6.54903 39.4281 6.41167 38.6038 6.41167C37.6422 6.41167 36.9553 6.54903 36.4058 6.82376C35.8562 7.09848 35.7189 7.92266 35.7189 8.33475C35.7189 8.74684 35.8562 9.02156 36.2684 9.29629C36.5431 9.57101 37.0927 9.70838 37.7796 9.9831L39.4281 10.5326C41.2141 11.082 42.7252 11.9062 43.6869 12.7304C44.6486 13.6919 45.1981 14.9282 45.1981 16.4391C45.1981 18.0875 44.5112 19.4611 43.2748 20.56C41.901 21.6589 40.115 22.2084 37.6422 22.2084C36.4058 22.2084 35.3067 22.071 34.3451 21.7963C33.3834 21.5216 32.5591 21.1095 32.0096 20.6974C31.4601 20.1479 31.1853 19.5985 31.1853 18.9117C31.1853 18.3622 31.3227 17.9501 31.5975 17.538C31.8722 17.126 32.2844 16.8512 32.6965 16.7139C33.246 17.126 33.9329 17.538 34.7572 17.9501C35.3067 18.3622 36.131 18.4996 37.23 18.4996Z" fill="#2C2C2C"/>
<path d="M57.5623 13.0049C57.2875 13.9664 57.0128 15.0653 56.738 16.1642C56.4633 17.2631 56.0511 18.2247 55.7764 19.1862C55.5016 20.1477 55.2268 20.8346 55.0895 21.384C54.8147 21.5214 54.5399 21.7961 54.1278 21.9335C53.7157 22.0708 53.1661 22.0708 52.6166 22.0708C51.9297 22.0708 51.3802 21.9335 50.8307 21.7961C50.2812 21.6587 50.0064 21.2467 49.7316 20.9719C49.5943 20.5598 49.3195 20.0104 49.0447 19.1862C48.77 18.4994 48.6326 17.5379 48.3578 16.5763C48.0831 15.6148 47.9457 14.6532 47.6709 13.5543C47.3962 12.4554 47.2588 11.4939 46.984 10.5324C46.8467 9.57083 46.5719 8.74665 46.4345 7.92248C46.7093 7.64775 47.1214 7.51039 47.5335 7.23566C47.9457 7.0983 48.3578 6.96094 48.9074 6.96094C49.5943 6.96094 50.0064 7.0983 50.4185 7.37303C50.8307 7.64775 51.1054 8.1972 51.1054 8.88401C51.2428 10.2576 51.5176 11.4939 51.655 12.4554C51.7923 13.417 51.9297 14.3785 52.0671 15.0653C52.2045 15.7521 52.3419 16.439 52.3419 16.851C52.4792 17.2631 52.4792 17.6752 52.6166 17.9499H52.754C52.8914 17.5379 53.0288 16.7137 53.3035 15.8895C53.5783 14.928 53.853 13.8291 54.1278 12.5928C54.4026 11.3565 54.8147 10.1203 55.0895 8.88401C55.3642 8.74665 55.7764 8.47193 56.1885 8.47193C56.6006 8.33456 57.0128 8.33456 57.4249 8.33456C58.1118 8.33456 58.524 8.47193 59.0735 8.60929C59.4856 8.74665 59.7604 9.15874 59.8978 9.57083C60.3099 10.8071 60.5847 12.0434 60.8594 13.1423C61.1342 14.2412 61.409 15.3401 61.6837 16.1642C61.9585 16.9884 62.0959 17.6752 62.2332 18.0873H62.3706C62.6454 16.439 62.9201 14.7906 63.1949 13.0049C63.4697 11.2192 63.7444 9.43346 63.8818 7.64775C64.5687 7.23566 65.2556 7.0983 65.9425 7.0983C66.6294 7.0983 67.0415 7.23566 67.4537 7.51039C67.8658 7.78511 68.0032 8.1972 68.0032 8.88401C68.0032 9.15874 68.0032 9.70819 67.8658 10.2576C67.7284 10.9445 67.5911 11.6313 67.4537 12.4554C67.3163 13.2796 67.0415 14.1038 66.9042 15.0653C66.6294 16.0269 66.492 16.851 66.2173 17.6752C65.9425 18.4994 65.8051 19.3236 65.5304 19.873C65.2556 20.4225 65.1182 21.1093 64.9808 21.384C64.7061 21.5214 64.4313 21.7961 63.8818 21.9335C63.3323 22.0708 62.7828 22.0708 62.2332 22.0708C60.722 22.0708 59.8978 21.6587 59.623 20.9719C59.4856 20.4225 59.2109 19.7357 58.9361 18.9115C58.6613 18.0873 58.3866 17.1258 58.1118 16.0269C57.9744 14.928 57.6997 13.9664 57.5623 13.0049Z" fill="#2C2C2C"/>
<path d="M70.7508 3.11486C70.7508 2.42805 71.0256 1.8786 71.4377 1.32915C71.8498 0.779697 72.5367 0.642334 73.2236 0.642334C73.9105 0.642334 74.5974 0.917059 75.0096 1.32915C75.4217 1.74124 75.6965 2.42805 75.6965 3.11486C75.6965 3.80167 75.4217 4.35113 75.0096 4.90058C74.5974 5.45003 73.9105 5.58739 73.2236 5.58739C72.5367 5.58739 71.8498 5.31266 71.4377 4.90058C70.8882 4.35113 70.7508 3.80167 70.7508 3.11486ZM75.4217 16.1643H71.0256V7.51047C71.1629 7.51047 71.4377 7.3731 71.8498 7.3731C72.1246 7.23574 72.5367 7.23574 72.9489 7.23574C73.7732 7.23574 74.4601 7.3731 74.8722 7.64783C75.2843 7.92255 75.4217 8.472 75.4217 9.29618V16.1643ZM71.0256 13.8291H75.4217V21.7962C75.2843 21.7962 75.0096 21.9335 74.5974 21.9335C74.1853 21.9335 73.9105 22.0709 73.361 22.0709C72.5367 22.0709 71.8498 21.9335 71.4377 21.6588C71.0256 21.3841 70.8882 20.8346 70.8882 20.0105V13.8291H71.0256Z" fill="#2C2C2C"/>
<path d="M83.3898 7.09842V11.2193H79.131V6.96106C79.131 5.58743 79.4058 4.62589 79.9553 3.80172C80.5048 2.97754 81.3291 2.42809 82.2908 2.016C83.2524 1.60392 84.3515 1.46655 85.5879 1.46655C86.9617 1.46655 88.0607 1.60392 88.7476 2.016C89.4345 2.42809 89.8467 2.97754 89.8467 3.80172C89.8467 4.21381 89.7093 4.48853 89.5719 4.76326C89.4345 5.03798 89.2972 5.31271 89.0224 5.45007C88.6103 5.31271 88.1981 5.17534 87.786 5.17534C87.3738 5.03798 86.8243 5.03798 86.2748 5.03798C85.3131 5.03798 84.6262 5.17534 84.0767 5.58743C83.6646 5.72479 83.3898 6.27425 83.3898 7.09842ZM79.131 10.3951H83.5272V21.7962C83.3898 21.7962 82.9777 21.9336 82.7029 21.9336C82.2908 21.9336 82.016 22.0709 81.4665 22.0709C80.6422 22.0709 79.9553 21.9336 79.6805 21.6589C79.2684 21.3841 79.131 20.8347 79.131 20.0105V10.3951ZM82.7029 11.7687V8.33468H93.5559C93.6933 8.47205 93.6933 8.74677 93.8307 9.0215C93.9681 9.29622 93.9681 9.70831 93.9681 9.98304C93.9681 10.6698 93.8307 11.0819 93.5559 11.3567C93.2812 11.6314 92.869 11.7687 92.4569 11.7687H82.7029Z" fill="#2C2C2C"/>
<path d="M96.0288 14.516H91.6326V3.66437C91.77 3.66437 92.1821 3.52701 92.4569 3.52701C92.7317 3.52701 93.1438 3.38965 93.5559 3.38965C94.3802 3.38965 95.0671 3.52701 95.4793 3.80174C95.8914 4.07646 96.0288 4.62591 96.0288 5.45009V14.516ZM91.6326 13.8292H96.0288V16.9885C96.0288 17.538 96.1662 17.9501 96.5783 18.2248C96.9904 18.4995 97.4026 18.6369 98.0895 18.6369C98.3642 18.6369 98.7764 18.6369 99.0511 18.4995C99.4633 18.3622 99.738 18.3622 99.8754 18.2248C100.013 18.3622 100.15 18.6369 100.288 18.9116C100.425 19.1864 100.425 19.4611 100.425 19.8732C100.425 20.56 100.15 21.1094 99.6007 21.5215C99.0511 21.9336 98.0895 22.2083 96.7157 22.2083C95.0671 22.2083 93.6933 21.7962 92.7317 21.1094C91.77 20.2853 91.3578 19.049 91.3578 17.4006V13.8292H91.6326ZM94.5176 11.082V7.64789H100.288C100.425 7.78525 100.425 8.05998 100.562 8.3347C100.7 8.60943 100.7 9.02152 100.7 9.29624C100.7 9.84569 100.562 10.3951 100.288 10.6699C100.013 10.9446 99.6007 11.082 99.1885 11.082H94.5176Z" fill="#2C2C2C"/>
<path d="M116.911 13.2796L117.872 11.7686C119.246 11.7686 120.345 12.0433 121.307 12.4554C122.268 12.8675 122.955 13.5543 123.367 14.2411C123.78 14.9279 124.054 15.7521 124.054 16.7136C124.054 18.4994 123.367 19.873 122.131 20.8345C120.757 21.6587 118.971 22.2082 116.498 22.2082C115.949 22.2082 115.399 22.2082 114.85 22.2082C114.3 22.2082 113.751 22.0708 113.201 22.0708C112.652 21.9334 112.24 21.9334 111.69 21.7961C110.866 21.5213 110.454 21.1093 110.454 20.4224V4.7631C110.454 4.48837 110.591 4.21365 110.728 4.07628C110.866 3.93892 111.141 3.80156 111.415 3.6642C112.102 3.52683 112.789 3.38947 113.613 3.25211C114.3 3.11475 115.125 3.11475 116.086 3.11475C118.422 3.11475 120.07 3.52683 121.444 4.35101C122.681 5.17519 123.367 6.41145 123.367 8.0598C123.367 8.88398 123.093 9.70815 122.681 10.395C122.268 11.0818 121.581 11.6312 120.757 12.1807C119.796 12.5928 118.559 12.8675 117.048 12.8675L116.773 11.3565C118.147 11.3565 119.109 11.0818 119.796 10.5323C120.482 9.98288 120.757 9.1587 120.757 8.19716C120.757 7.23562 120.345 6.41145 119.521 5.99936C118.696 5.44991 117.597 5.31255 115.949 5.31255C115.262 5.31255 114.712 5.31255 114.163 5.44991C113.613 5.44991 113.201 5.58727 112.652 5.58727V19.873C113.201 20.0103 113.751 20.0103 114.3 20.1477C114.987 20.1477 115.537 20.2851 116.224 20.2851C117.872 20.2851 119.109 20.0103 120.07 19.4609C120.895 18.9114 121.307 18.0873 121.307 16.851C121.307 15.7521 120.895 14.9279 120.208 14.3785C119.521 13.5543 118.422 13.2796 116.911 13.2796ZM120.345 11.2191V13.1422H112.102V11.2191H120.345Z" fill="#2C2C2C"/>
<path d="M132.984 7.37305C134.77 7.37305 136.144 7.78513 137.105 8.60931C138.067 9.43349 138.617 10.6697 138.617 12.3181V19.461C138.617 19.873 138.479 20.2851 138.342 20.4225C138.204 20.6972 137.93 20.8346 137.518 21.1093C136.968 21.384 136.419 21.6588 135.594 21.7961C134.77 22.0708 133.946 22.0708 132.847 22.0708C130.923 22.0708 129.55 21.6588 128.45 20.9719C127.351 20.2851 126.939 19.1862 126.939 17.8126C126.939 16.439 127.351 15.4774 128.313 14.7906C129.275 14.1038 130.374 13.6917 131.885 13.5544L136.144 13.1423V12.3181C136.144 11.3566 135.869 10.5324 135.182 10.1203C134.633 9.70821 133.808 9.43349 132.709 9.43349C131.885 9.43349 131.061 9.57085 130.374 9.84557C129.687 10.1203 129 10.395 128.313 10.6697C128.176 10.5324 128.038 10.395 127.901 10.1203C127.764 9.98294 127.764 9.70821 127.764 9.57085C127.764 9.0214 128.038 8.60931 128.588 8.33459C129.137 8.05986 129.824 7.78514 130.511 7.64777C131.335 7.51041 132.16 7.37305 132.984 7.37305ZM132.984 20.1478C133.808 20.1478 134.495 20.0104 135.045 19.873C135.594 19.7357 136.006 19.5983 136.281 19.3236V14.928L132.572 15.4774C131.473 15.6148 130.786 15.7522 130.236 16.1643C129.687 16.5763 129.55 17.1258 129.55 17.8126C129.55 18.4994 129.824 19.1862 130.374 19.5983C130.923 20.0104 131.885 20.1478 132.984 20.1478Z" fill="#2C2C2C"/>
<path d="M155.102 12.5928V15.6148H152.629V12.7302C152.629 11.6313 152.355 10.8071 151.668 10.2577C150.981 9.70821 150.157 9.43349 149.058 9.43349C148.233 9.43349 147.546 9.57085 146.859 9.70821C146.173 9.84557 145.76 10.1203 145.211 10.395V15.6148H142.738V10.5324C142.738 10.1203 142.875 9.70821 143.013 9.43349C143.15 9.15876 143.425 8.88404 143.837 8.60931C144.387 8.33459 145.073 8.05986 145.898 7.78514C146.722 7.51041 147.684 7.37305 148.783 7.37305C150.569 7.37305 152.08 7.78513 153.042 8.60931C154.553 9.57085 155.102 10.8071 155.102 12.5928ZM143.013 13.9665H145.486V21.6588C145.348 21.6588 145.211 21.7961 145.073 21.7961C144.936 21.7961 144.661 21.9335 144.387 21.9335C143.974 21.9335 143.7 21.7961 143.425 21.6588C143.15 21.5214 143.15 21.2467 143.15 20.8346V13.9665H143.013ZM152.767 13.9665H155.24V21.6588C155.102 21.6588 154.965 21.7961 154.827 21.7961C154.553 21.7961 154.415 21.9335 154.141 21.9335C153.728 21.9335 153.316 21.7961 153.179 21.6588C152.904 21.5214 152.904 21.2467 152.904 20.8346V13.9665H152.767Z" fill="#2C2C2C"/>
<path d="M162.109 15.2028L159.636 14.7907V2.15339C159.773 2.15339 159.911 2.01602 160.048 2.01602C160.323 2.01602 160.46 1.87866 160.735 1.87866C161.147 1.87866 161.422 2.01602 161.696 2.15339C161.971 2.29075 161.971 2.56548 161.971 2.97756V15.2028H162.109ZM159.773 13.6918L162.246 14.1039V21.7962C162.109 21.7962 161.971 21.9336 161.834 21.9336C161.696 21.9336 161.422 22.071 161.147 22.071C160.735 22.071 160.46 21.9336 160.185 21.7962C159.911 21.6589 159.911 21.3842 159.911 20.9721V13.6918H159.773ZM161.834 14.6534L163.482 13.6918L171.176 20.56C171.176 20.9721 171.038 21.3842 170.764 21.6589C170.489 21.9336 170.214 22.071 169.802 22.071C169.527 22.071 169.252 21.9336 168.978 21.7962C168.703 21.6589 168.428 21.3842 168.153 21.1094L161.834 14.6534ZM163.345 15.3402L161.834 14.1039L168.703 7.37317C169.252 7.37317 169.527 7.51053 169.802 7.78525C170.077 8.05998 170.214 8.33471 170.214 8.60943C170.214 8.88416 170.077 9.15888 169.939 9.29624C169.802 9.57097 169.527 9.70833 169.252 9.98306L163.345 15.3402Z" fill="#2C2C2C"/>
<mask id="mask0_94_185" style="mask-type:luminance" maskUnits="userSpaceOnUse" x="0" y="0" width="23" height="23">
<path d="M18.6837 22.2084H4.39616C2.47284 22.2084 0.82428 20.56 0.82428 18.6369V4.35121C0.82428 2.42814 2.47284 0.779785 4.39616 0.779785H18.6837C20.607 0.779785 22.2556 2.42814 22.2556 4.35121V18.6369C22.2556 20.56 20.607 22.2084 18.6837 22.2084Z" fill="white"/>
</mask>
<g mask="url(#mask0_94_185)">
<path d="M18.6837 22.2084H4.39616C2.47284 22.2084 0.82428 20.56 0.82428 18.6369V4.35121C0.82428 2.42814 2.47284 0.779785 4.39616 0.779785H18.6837C20.607 0.779785 22.2556 2.42814 22.2556 4.35121V18.6369C22.2556 20.56 20.607 22.2084 18.6837 22.2084Z" fill="#2C2C2C"/>
</g>
<mask id="mask1_94_185" style="mask-type:luminance" maskUnits="userSpaceOnUse" x="0" y="0" width="23" height="23">
<path d="M18.6837 22.2084H4.39616C2.47284 22.2084 0.82428 20.56 0.82428 18.6369V4.35121C0.82428 2.42814 2.47284 0.779785 4.39616 0.779785H18.6837C20.607 0.779785 22.2556 2.42814 22.2556 4.35121V18.6369C22.2556 20.56 20.607 22.2084 18.6837 22.2084Z" fill="white"/>
</mask>
<g mask="url(#mask1_94_185)">
<path d="M8.38019 18.637C10.5783 19.4612 12.2268 19.7359 13.3259 19.5985C14.4249 19.4612 15.1118 19.0491 15.3866 18.2249C15.6613 17.5381 15.3866 16.8513 14.8371 16.3018C14.2875 15.615 13.3259 14.9282 11.9521 14.104L9.06709 12.1809C7.14376 10.9447 5.35782 9.70841 3.84664 8.60951C2.47284 7.37325 1.51118 6.13698 0.824275 4.90072C0.274755 3.66446 0.274755 2.29083 0.824275 0.917204C1.64856 -1.2806 3.57188 -2.51686 6.45686 -2.92895C9.34185 -3.34104 13.1885 -2.51686 17.722 -1.00587C19.9201 -0.0443342 21.9808 0.779842 23.6294 1.74138C25.2779 2.70292 26.5144 3.66446 27.3386 4.48863C28.1629 5.31281 28.4377 6.27435 28.1629 7.09852C27.8882 7.64797 27.6134 8.19742 26.9265 8.47215C26.377 8.74687 25.6901 8.88424 24.8658 9.0216C24.0415 8.33479 22.9425 7.51061 21.5687 6.54907C20.1949 5.7249 18.5463 4.90072 16.7604 4.21391C14.8371 3.52709 13.3259 3.25237 12.2268 3.25237C11.1278 3.25237 10.4409 3.66446 10.1661 4.35127C10.0287 4.90072 10.1661 5.45017 10.7156 5.99962C11.2652 6.54907 12.0895 7.23589 13.3259 7.9227L16.3482 9.84578C19.7827 11.9062 22.1182 13.9667 23.6294 15.8897C25.1406 17.8128 25.5527 19.7359 24.7284 21.7963C23.9041 23.9941 21.9808 25.2304 18.8211 25.7798C15.6613 26.1919 11.6773 25.5051 6.73162 23.7194C4.25878 22.8952 2.19808 21.7963 0.412135 20.8348C-1.37381 19.7359 -2.74761 18.7743 -3.57189 17.6754C-4.53355 16.5765 -4.80831 15.615 -4.39617 14.7908C-4.12141 14.104 -3.57189 13.6919 -2.88499 13.4172C-2.06071 13.1425 -1.23643 13.0051 -0.412146 13.1425C0.412135 14.104 1.64856 15.0656 3.02236 16.1645C4.67092 16.9886 6.31948 17.9502 8.38019 18.637Z" fill="#FFBA05"/>
</g>
</svg>
